<svg width="388" height="66" viewBox="0 0 388 66" fill="none" xmlns="http://www.w3.org/2000/svg">
<path d="M25.2 2.19999V30H20.64V17.84H7.56V30H3V2.19999H7.56V14.12H20.64V2.19999H25.2Z" fill="#174478"/>
<path d="M51.4031 18.44C51.4031 19.2667 51.3498 20.0133 51.2431 20.68H34.4031C34.5365 22.44 35.1898 23.8533 36.3631 24.92C37.5365 25.9867 38.9765 26.52 40.6831 26.52C43.1365 26.52 44.8698 25.4933 45.8831 23.44H50.8031C50.1365 25.4667 48.9231 27.1333 47.1631 28.44C45.4298 29.72 43.2698 30.36 40.6831 30.36C38.5765 30.36 36.6831 29.8933 35.0031 28.96C33.3498 28 32.0431 26.6667 31.0831 24.96C30.1498 23.2267 29.6831 21.2267 29.6831 18.96C29.6831 16.6933 30.1365 14.7067 31.0431 13C31.9765 11.2667 33.2698 9.93333 34.9231 8.99999C36.6031 8.06666 38.5231 7.59999 40.6831 7.59999C42.7631 7.59999 44.6165 8.05333 46.2431 8.95999C47.8698 9.86666 49.1365 11.1467 50.0431 12.8C50.9498 14.4267 51.4031 16.3067 51.4031 18.44ZM46.6431 17C46.6165 15.32 46.0165 13.9733 44.8431 12.96C43.6698 11.9467 42.2165 11.44 40.4831 11.44C38.9098 11.44 37.5631 11.9467 36.4431 12.96C35.3231 13.9467 34.6565 15.2933 34.4431 17H46.6431Z" fill="#174478"/>
<path d="M60.4506 0.399994V30H55.8906V0.399994H60.4506Z" fill="#174478"/>
<path d="M70.9975 0.399994V30H66.4375V0.399994H70.9975Z" fill="#174478"/>
<path d="M86.5444 30.36C84.4644 30.36 82.5844 29.8933 80.9044 28.96C79.2244 28 77.9044 26.6667 76.9444 24.96C75.9844 23.2267 75.5044 21.2267 75.5044 18.96C75.5044 16.72 75.9977 14.7333 76.9844 13C77.971 11.2667 79.3177 9.93333 81.0244 8.99999C82.731 8.06666 84.6377 7.59999 86.7444 7.59999C88.851 7.59999 90.7577 8.06666 92.4644 8.99999C94.171 9.93333 95.5177 11.2667 96.5044 13C97.491 14.7333 97.9844 16.72 97.9844 18.96C97.9844 21.2 97.4777 23.1867 96.4644 24.92C95.451 26.6533 94.0644 28 92.3044 28.96C90.571 29.8933 88.651 30.36 86.5444 30.36ZM86.5444 26.4C87.7177 26.4 88.811 26.12 89.8244 25.56C90.8644 25 91.7044 24.16 92.3444 23.04C92.9844 21.92 93.3044 20.56 93.3044 18.96C93.3044 17.36 92.9977 16.0133 92.3844 14.92C91.771 13.8 90.9577 12.96 89.9444 12.4C88.931 11.84 87.8377 11.56 86.6644 11.56C85.491 11.56 84.3977 11.84 83.3844 12.4C82.3977 12.96 81.611 13.8 81.0244 14.92C80.4377 16.0133 80.1444 17.36 80.1444 18.96C80.1444 21.3333 80.7444 23.1733 81.9444 24.48C83.171 25.76 84.7044 26.4 86.5444 26.4Z" fill="#174478"/>
<path d="M122.043 30.28C120.176 30.28 118.496 29.96 117.003 29.32C115.509 28.6533 114.336 27.72 113.483 26.52C112.629 25.32 112.203 23.92 112.203 22.32H117.083C117.189 23.52 117.656 24.5067 118.483 25.28C119.336 26.0533 120.523 26.44 122.043 26.44C123.616 26.44 124.843 26.0667 125.723 25.32C126.603 24.5467 127.043 23.56 127.043 22.36C127.043 21.4267 126.763 20.6667 126.203 20.08C125.669 19.4933 124.989 19.04 124.163 18.72C123.363 18.4 122.243 18.0533 120.803 17.68C118.989 17.2 117.509 16.72 116.363 16.24C115.243 15.7333 114.283 14.96 113.483 13.92C112.683 12.88 112.283 11.4933 112.283 9.75999C112.283 8.15999 112.683 6.75999 113.483 5.55999C114.283 4.35999 115.403 3.43999 116.843 2.79999C118.283 2.15999 119.949 1.83999 121.843 1.83999C124.536 1.83999 126.736 2.51999 128.443 3.87999C130.176 5.21333 131.136 7.05333 131.323 9.39999H126.283C126.203 8.38666 125.723 7.51999 124.843 6.79999C123.963 6.07999 122.803 5.71999 121.363 5.71999C120.056 5.71999 118.989 6.05333 118.163 6.71999C117.336 7.38666 116.923 8.34666 116.923 9.59999C116.923 10.4533 117.176 11.16 117.683 11.72C118.216 12.2533 118.883 12.68 119.683 13C120.483 13.32 121.576 13.6667 122.963 14.04C124.803 14.5467 126.296 15.0533 127.443 15.56C128.616 16.0667 129.603 16.8533 130.403 17.92C131.229 18.96 131.643 20.36 131.643 22.12C131.643 23.5333 131.256 24.8667 130.483 26.12C129.736 27.3733 128.629 28.3867 127.163 29.16C125.723 29.9067 124.016 30.28 122.043 30.28Z" fill="#174478"/>
<path d="M135.503 18.88C135.503 16.6667 135.957 14.7067 136.863 13C137.797 11.2933 139.05 9.97333 140.623 9.03999C142.223 8.07999 143.983 7.59999 145.903 7.59999C147.637 7.59999 149.143 7.94666 150.423 8.63999C151.73 9.30666 152.77 10.1467 153.543 11.16V7.95999H158.143V30H153.543V26.72C152.77 27.76 151.717 28.6267 150.383 29.32C149.05 30.0133 147.53 30.36 145.823 30.36C143.93 30.36 142.197 29.88 140.623 28.92C139.05 27.9333 137.797 26.5733 136.863 24.84C135.957 23.08 135.503 21.0933 135.503 18.88ZM153.543 18.96C153.543 17.44 153.223 16.12 152.583 15C151.97 13.88 151.157 13.0267 150.143 12.44C149.13 11.8533 148.037 11.56 146.863 11.56C145.69 11.56 144.597 11.8533 143.583 12.44C142.57 13 141.743 13.84 141.103 14.96C140.49 16.0533 140.183 17.36 140.183 18.88C140.183 20.4 140.49 21.7333 141.103 22.88C141.743 24.0267 142.57 24.9067 143.583 25.52C144.623 26.1067 145.717 26.4 146.863 26.4C148.037 26.4 149.13 26.1067 150.143 25.52C151.157 24.9333 151.97 24.08 152.583 22.96C153.223 21.8133 153.543 20.48 153.543 18.96Z" fill="#174478"/>
<path d="M168.693 11.16C169.359 10.04 170.239 9.17333 171.333 8.55999C172.453 7.91999 173.773 7.59999 175.293 7.59999V12.32H174.133C172.346 12.32 170.986 12.7733 170.053 13.68C169.146 14.5867 168.693 16.16 168.693 18.4V30H164.133V7.95999H168.693V11.16Z" fill="#174478"/>
<path d="M177.964 18.88C177.964 16.6667 178.418 14.7067 179.324 13C180.258 11.2933 181.511 9.97333 183.084 9.03999C184.684 8.07999 186.444 7.59999 188.364 7.59999C190.098 7.59999 191.604 7.94666 192.884 8.63999C194.191 9.30666 195.231 10.1467 196.004 11.16V7.95999H200.604V30H196.004V26.72C195.231 27.76 194.178 28.6267 192.844 29.32C191.511 30.0133 189.991 30.36 188.284 30.36C186.391 30.36 184.658 29.88 183.084 28.92C181.511 27.9333 180.258 26.5733 179.324 24.84C178.418 23.08 177.964 21.0933 177.964 18.88ZM196.004 18.96C196.004 17.44 195.684 16.12 195.044 15C194.431 13.88 193.618 13.0267 192.604 12.44C191.591 11.8533 190.498 11.56 189.324 11.56C188.151 11.56 187.058 11.8533 186.044 12.44C185.031 13 184.204 13.84 183.564 14.96C182.951 16.0533 182.644 17.36 182.644 18.88C182.644 20.4 182.951 21.7333 183.564 22.88C184.204 24.0267 185.031 24.9067 186.044 25.52C187.084 26.1067 188.178 26.4 189.324 26.4C190.498 26.4 191.591 26.1067 192.604 25.52C193.618 24.9333 194.431 24.08 195.044 22.96C195.684 21.8133 196.004 20.48 196.004 18.96Z" fill="#174478"/>
<path d="M217.994 7.59999C219.674 7.59999 221.167 7.95999 222.474 8.67999C223.807 9.39999 224.847 10.4667 225.594 11.88C226.367 13.2933 226.754 15 226.754 17V30H222.234V17.68C222.234 15.7067 221.74 14.2 220.754 13.16C219.767 12.0933 218.42 11.56 216.714 11.56C215.007 11.56 213.647 12.0933 212.634 13.16C211.647 14.2 211.154 15.7067 211.154 17.68V30H206.594V0.399994H211.154V10.52C211.927 9.58666 212.9 8.86666 214.074 8.35999C215.274 7.85333 216.58 7.59999 217.994 7.59999Z" fill="#174478"/>
<path d="M237.57 24.52L232.73 35.56H229.77L232.61 24.52H237.57Z" fill="#174478"/>
<path d="M9.4 45.96V46.72H5.4V60H4.5V46.72H0.5V45.96H9.4Z" fill="#174478"/>
<path d="M16.4623 48.92C17.7423 48.92 18.789 49.32 19.6023 50.12C20.4157 50.9067 20.8223 52.08 20.8223 53.64V60H19.9423V53.7C19.9423 52.4067 19.6157 51.42 18.9623 50.74C18.309 50.0467 17.4223 49.7 16.3023 49.7C15.129 49.7 14.189 50.0733 13.4823 50.82C12.789 51.5667 12.4423 52.6733 12.4423 54.14V60H11.5423V45.2H12.4423V51.44C12.749 50.6267 13.2623 50.0067 13.9823 49.58C14.7023 49.14 15.529 48.92 16.4623 48.92Z" fill="#174478"/>
<path d="M24.4633 46.72C24.2499 46.72 24.0699 46.6533 23.9233 46.52C23.7766 46.3733 23.7033 46.18 23.7033 45.94C23.7033 45.7133 23.7766 45.5267 23.9233 45.38C24.0699 45.2333 24.2499 45.16 24.4633 45.16C24.6766 45.16 24.8566 45.2333 25.0033 45.38C25.1499 45.5267 25.2233 45.7133 25.2233 45.94C25.2233 46.18 25.1499 46.3733 25.0033 46.52C24.8566 46.6533 24.6766 46.72 24.4633 46.72ZM24.9033 49.14V60H24.0033V49.14H24.9033Z" fill="#174478"/>
<path d="M31.8225 60.16C30.6092 60.16 29.6158 59.8933 28.8425 59.36C28.0825 58.8267 27.6558 58.0667 27.5625 57.08H28.4825C28.5492 57.7867 28.8692 58.3467 29.4425 58.76C30.0292 59.1733 30.8225 59.38 31.8225 59.38C32.6492 59.38 33.3025 59.1733 33.7825 58.76C34.2758 58.3333 34.5225 57.8133 34.5225 57.2C34.5225 56.7733 34.3892 56.4267 34.1225 56.16C33.8692 55.88 33.5492 55.6667 33.1625 55.52C32.7758 55.3733 32.2492 55.2133 31.5825 55.04C30.7825 54.8267 30.1358 54.62 29.6425 54.42C29.1492 54.2067 28.7292 53.8933 28.3825 53.48C28.0358 53.0667 27.8625 52.5133 27.8625 51.82C27.8625 51.3133 28.0158 50.8467 28.3225 50.42C28.6292 49.98 29.0558 49.6333 29.6025 49.38C30.1492 49.1267 30.7692 49 31.4625 49C32.5958 49 33.5092 49.2867 34.2025 49.86C34.9092 50.42 35.2892 51.2 35.3425 52.2H34.4425C34.4025 51.48 34.1225 50.8933 33.6025 50.44C33.0825 49.9867 32.3625 49.76 31.4425 49.76C30.6692 49.76 30.0292 49.96 29.5225 50.36C29.0158 50.76 28.7625 51.2467 28.7625 51.82C28.7625 52.3267 28.9025 52.74 29.1825 53.06C29.4758 53.3667 29.8292 53.6067 30.2425 53.78C30.6692 53.94 31.2292 54.1133 31.9225 54.3C32.6825 54.5 33.2892 54.7 33.7425 54.9C34.2092 55.0867 34.6025 55.3667 34.9225 55.74C35.2425 56.1 35.4025 56.5867 35.4025 57.2C35.4025 57.76 35.2492 58.2667 34.9425 58.72C34.6358 59.1733 34.2092 59.5267 33.6625 59.78C33.1158 60.0333 32.5025 60.16 31.8225 60.16Z" fill="#174478"/>
<path d="M44.2484 46.72C44.0351 46.72 43.8551 46.6533 43.7084 46.52C43.5618 46.3733 43.4884 46.18 43.4884 45.94C43.4884 45.7133 43.5618 45.5267 43.7084 45.38C43.8551 45.2333 44.0351 45.16 44.2484 45.16C44.4618 45.16 44.6418 45.2333 44.7884 45.38C44.9351 45.5267 45.0084 45.7133 45.0084 45.94C45.0084 46.18 44.9351 46.3733 44.7884 46.52C44.6418 46.6533 44.4618 46.72 44.2484 46.72ZM44.6884 49.14V60H43.7884V49.14H44.6884Z" fill="#174478"/>
<path d="M51.6077 60.16C50.3943 60.16 49.401 59.8933 48.6277 59.36C47.8677 58.8267 47.441 58.0667 47.3477 57.08H48.2677C48.3343 57.7867 48.6543 58.3467 49.2277 58.76C49.8143 59.1733 50.6077 59.38 51.6077 59.38C52.4343 59.38 53.0877 59.1733 53.5677 58.76C54.061 58.3333 54.3077 57.8133 54.3077 57.2C54.3077 56.7733 54.1743 56.4267 53.9077 56.16C53.6543 55.88 53.3343 55.6667 52.9477 55.52C52.561 55.3733 52.0343 55.2133 51.3677 55.04C50.5677 54.8267 49.921 54.62 49.4277 54.42C48.9343 54.2067 48.5143 53.8933 48.1677 53.48C47.821 53.0667 47.6477 52.5133 47.6477 51.82C47.6477 51.3133 47.801 50.8467 48.1077 50.42C48.4143 49.98 48.841 49.6333 49.3877 49.38C49.9343 49.1267 50.5543 49 51.2477 49C52.381 49 53.2943 49.2867 53.9877 49.86C54.6943 50.42 55.0743 51.2 55.1277 52.2H54.2277C54.1877 51.48 53.9077 50.8933 53.3877 50.44C52.8677 49.9867 52.1477 49.76 51.2277 49.76C50.4543 49.76 49.8143 49.96 49.3077 50.36C48.801 50.76 48.5477 51.2467 48.5477 51.82C48.5477 52.3267 48.6877 52.74 48.9677 53.06C49.261 53.3667 49.6143 53.6067 50.0277 53.78C50.4543 53.94 51.0143 54.1133 51.7077 54.3C52.4677 54.5 53.0743 54.7 53.5277 54.9C53.9943 55.0867 54.3877 55.3667 54.7077 55.74C55.0277 56.1 55.1877 56.5867 55.1877 57.2C55.1877 57.76 55.0343 58.2667 54.7277 58.72C54.421 59.1733 53.9943 59.5267 53.4477 59.78C52.901 60.0333 52.2877 60.16 51.6077 60.16Z" fill="#174478"/>
<path d="M72.0536 49.14L65.7336 65.1H64.8136L66.8336 60L62.2736 49.14H63.2536L67.3336 59L71.1336 49.14H72.0536Z" fill="#174478"/>
<path d="M78.8419 60.16C77.8285 60.16 76.9152 59.9333 76.1019 59.48C75.2885 59.0267 74.6485 58.38 74.1819 57.54C73.7285 56.6867 73.5019 55.6933 73.5019 54.56C73.5019 53.44 73.7352 52.46 74.2019 51.62C74.6685 50.7667 75.3085 50.12 76.1219 49.68C76.9485 49.2267 77.8685 49 78.8819 49C79.8952 49 80.8085 49.2267 81.6219 49.68C82.4352 50.12 83.0685 50.76 83.5219 51.6C83.9885 52.44 84.2219 53.4267 84.2219 54.56C84.2219 55.6933 83.9885 56.6867 83.5219 57.54C83.0552 58.38 82.4085 59.0267 81.5819 59.48C80.7685 59.9333 79.8552 60.16 78.8419 60.16ZM78.8419 59.36C79.6285 59.36 80.3619 59.1867 81.0419 58.84C81.7352 58.48 82.2885 57.94 82.7019 57.22C83.1152 56.5 83.3219 55.6133 83.3219 54.56C83.3219 53.52 83.1152 52.64 82.7019 51.92C82.2885 51.2 81.7419 50.6667 81.0619 50.32C80.3819 49.96 79.6485 49.78 78.8619 49.78C78.0752 49.78 77.3419 49.96 76.6619 50.32C75.9952 50.6667 75.4552 51.2 75.0419 51.92C74.6285 52.64 74.4219 53.52 74.4219 54.56C74.4219 55.6133 74.6219 56.5 75.0219 57.22C75.4352 57.94 75.9752 58.48 76.6419 58.84C77.3219 59.1867 78.0552 59.36 78.8419 59.36Z" fill="#174478"/>
<path d="M96.1325 49.14V60H95.2325V57.64C94.9258 58.4667 94.4125 59.1 93.6925 59.54C92.9858 59.9667 92.1725 60.18 91.2525 60.18C89.9592 60.18 88.8992 59.7867 88.0725 59C87.2592 58.2 86.8525 57.02 86.8525 55.46V49.14H87.7325V55.4C87.7325 56.6933 88.0592 57.6867 88.7125 58.38C89.3658 59.06 90.2525 59.4 91.3725 59.4C92.5458 59.4 93.4792 59.0267 94.1725 58.28C94.8792 57.5333 95.2325 56.4267 95.2325 54.96V49.14H96.1325Z" fill="#174478"/>
<path d="M100.313 51.38C100.58 50.58 101.053 49.9733 101.733 49.56C102.413 49.1333 103.28 48.92 104.333 48.92V49.86H104.033C102.967 49.86 102.08 50.1667 101.373 50.78C100.667 51.38 100.313 52.3667 100.313 53.74V60H99.4134V49.14H100.313V51.38Z" fill="#174478"/>
<path d="M111.49 54.56C111.49 53.4267 111.71 52.44 112.15 51.6C112.603 50.76 113.223 50.12 114.01 49.68C114.81 49.2267 115.723 49 116.75 49C118.11 49 119.223 49.34 120.09 50.02C120.97 50.7 121.517 51.6133 121.73 52.76H120.79C120.617 51.8267 120.163 51.0933 119.43 50.56C118.71 50.0267 117.817 49.76 116.75 49.76C115.95 49.76 115.223 49.94 114.57 50.3C113.917 50.6467 113.39 51.1867 112.99 51.92C112.603 52.64 112.41 53.52 112.41 54.56C112.41 55.6133 112.603 56.5 112.99 57.22C113.39 57.94 113.917 58.48 114.57 58.84C115.223 59.2 115.95 59.38 116.75 59.38C117.817 59.38 118.71 59.1133 119.43 58.58C120.163 58.0467 120.617 57.3133 120.79 56.38H121.73C121.517 57.5133 120.97 58.4267 120.09 59.12C119.21 59.8133 118.097 60.16 116.75 60.16C115.723 60.16 114.81 59.9333 114.01 59.48C113.223 59.0267 112.603 58.38 112.15 57.54C111.71 56.6867 111.49 55.6933 111.49 54.56Z" fill="#174478"/>
<path d="M133.652 49.14V60H132.752V57.64C132.445 58.4667 131.932 59.1 131.212 59.54C130.505 59.9667 129.692 60.18 128.772 60.18C127.479 60.18 126.419 59.7867 125.592 59C124.779 58.2 124.372 57.02 124.372 55.46V49.14H125.252V55.4C125.252 56.6933 125.579 57.6867 126.232 58.38C126.885 59.06 127.772 59.4 128.892 59.4C130.065 59.4 130.999 59.0267 131.692 58.28C132.399 57.5333 132.752 56.4267 132.752 54.96V49.14H133.652Z" fill="#174478"/>
<path d="M137.833 51.38C138.1 50.58 138.573 49.9733 139.253 49.56C139.933 49.1333 140.8 48.92 141.853 48.92V49.86H141.553C140.486 49.86 139.6 50.1667 138.893 50.78C138.186 51.38 137.833 52.3667 137.833 53.74V60H136.933V49.14H137.833V51.38Z" fill="#174478"/>
<path d="M144.825 51.38C145.092 50.58 145.565 49.9733 146.245 49.56C146.925 49.1333 147.792 48.92 148.845 48.92V49.86H148.545C147.478 49.86 146.592 50.1667 145.885 50.78C145.178 51.38 144.825 52.3667 144.825 53.74V60H143.925V49.14H144.825V51.38Z" fill="#174478"/>
<path d="M160.697 53.84C160.697 54.32 160.684 54.68 160.657 54.92H151.277C151.304 55.8933 151.517 56.7133 151.917 57.38C152.317 58.0467 152.844 58.5467 153.497 58.88C154.151 59.2133 154.864 59.38 155.637 59.38C156.704 59.38 157.597 59.12 158.317 58.6C159.037 58.0667 159.491 57.3467 159.677 56.44H160.617C160.404 57.5467 159.857 58.4467 158.977 59.14C158.097 59.82 156.984 60.16 155.637 60.16C154.624 60.16 153.717 59.9333 152.917 59.48C152.117 59.0267 151.491 58.38 151.037 57.54C150.584 56.6867 150.357 55.6933 150.357 54.56C150.357 53.4267 150.577 52.44 151.017 51.6C151.471 50.76 152.097 50.12 152.897 49.68C153.697 49.2267 154.611 49 155.637 49C156.677 49 157.577 49.2267 158.337 49.68C159.111 50.12 159.697 50.7133 160.097 51.46C160.497 52.1933 160.697 52.9867 160.697 53.84ZM159.797 54.18C159.837 53.22 159.664 52.4067 159.277 51.74C158.904 51.0733 158.391 50.58 157.737 50.26C157.084 49.9267 156.377 49.76 155.617 49.76C154.857 49.76 154.151 49.9267 153.497 50.26C152.857 50.58 152.331 51.0733 151.917 51.74C151.517 52.4067 151.304 53.22 151.277 54.18H159.797Z" fill="#174478"/>
<path d="M168.317 48.92C169.611 48.92 170.664 49.32 171.477 50.12C172.291 50.9067 172.697 52.08 172.697 53.64V60H171.817V53.7C171.817 52.4067 171.491 51.42 170.837 50.74C170.184 50.0467 169.297 49.7 168.177 49.7C167.004 49.7 166.064 50.0733 165.357 50.82C164.664 51.5667 164.317 52.6733 164.317 54.14V60H163.417V49.14H164.317V51.44C164.624 50.6267 165.131 50.0067 165.837 49.58C166.557 49.14 167.384 48.92 168.317 48.92Z" fill="#174478"/>
<path d="M177.218 49.92V57.1C177.218 57.9 177.365 58.4533 177.658 58.76C177.952 59.0533 178.472 59.2 179.218 59.2H180.438V60H179.078C178.132 60 177.432 59.78 176.978 59.34C176.538 58.8867 176.318 58.14 176.318 57.1V49.92H174.678V49.14H176.318V46.38H177.218V49.14H180.438V49.92H177.218Z" fill="#174478"/>
<path d="M187.896 54.56C187.896 53.44 188.116 52.46 188.556 51.62C189.01 50.78 189.63 50.1333 190.416 49.68C191.216 49.2267 192.123 49 193.136 49C194.283 49 195.256 49.28 196.056 49.84C196.856 50.4 197.416 51.1133 197.736 51.98V49.14H198.636V60H197.736V57.14C197.416 58.02 196.85 58.7467 196.036 59.32C195.236 59.88 194.27 60.16 193.136 60.16C192.123 60.16 191.216 59.9333 190.416 59.48C189.63 59.0133 189.01 58.36 188.556 57.52C188.116 56.6667 187.896 55.68 187.896 54.56ZM197.736 54.56C197.736 53.6133 197.536 52.78 197.136 52.06C196.75 51.3267 196.216 50.7667 195.536 50.38C194.856 49.98 194.096 49.78 193.256 49.78C192.376 49.78 191.603 49.9733 190.936 50.36C190.27 50.7333 189.75 51.28 189.376 52C189.003 52.72 188.816 53.5733 188.816 54.56C188.816 55.5467 189.003 56.4 189.376 57.12C189.75 57.84 190.27 58.3933 190.936 58.78C191.616 59.1667 192.39 59.36 193.256 59.36C194.096 59.36 194.856 59.1667 195.536 58.78C196.23 58.38 196.77 57.82 197.156 57.1C197.543 56.3667 197.736 55.52 197.736 54.56Z" fill="#174478"/>
<path d="M201.353 54.56C201.353 53.4267 201.573 52.44 202.013 51.6C202.467 50.76 203.087 50.12 203.873 49.68C204.673 49.2267 205.587 49 206.613 49C207.973 49 209.087 49.34 209.953 50.02C210.833 50.7 211.38 51.6133 211.593 52.76H210.653C210.48 51.8267 210.027 51.0933 209.293 50.56C208.573 50.0267 207.68 49.76 206.613 49.76C205.813 49.76 205.087 49.94 204.433 50.3C203.78 50.6467 203.253 51.1867 202.853 51.92C202.467 52.64 202.273 53.52 202.273 54.56C202.273 55.6133 202.467 56.5 202.853 57.22C203.253 57.94 203.78 58.48 204.433 58.84C205.087 59.2 205.813 59.38 206.613 59.38C207.68 59.38 208.573 59.1133 209.293 58.58C210.027 58.0467 210.48 57.3133 210.653 56.38H211.593C211.38 57.5133 210.833 58.4267 209.953 59.12C209.073 59.8133 207.96 60.16 206.613 60.16C205.587 60.16 204.673 59.9333 203.873 59.48C203.087 59.0267 202.467 58.38 202.013 57.54C201.573 56.6867 201.353 55.6933 201.353 54.56Z" fill="#174478"/>
<path d="M213.775 54.56C213.775 53.4267 213.995 52.44 214.435 51.6C214.889 50.76 215.509 50.12 216.295 49.68C217.095 49.2267 218.009 49 219.035 49C220.395 49 221.509 49.34 222.375 50.02C223.255 50.7 223.802 51.6133 224.015 52.76H223.075C222.902 51.8267 222.449 51.0933 221.715 50.56C220.995 50.0267 220.102 49.76 219.035 49.76C218.235 49.76 217.509 49.94 216.855 50.3C216.202 50.6467 215.675 51.1867 215.275 51.92C214.889 52.64 214.695 53.52 214.695 54.56C214.695 55.6133 214.889 56.5 215.275 57.22C215.675 57.94 216.202 58.48 216.855 58.84C217.509 59.2 218.235 59.38 219.035 59.38C220.102 59.38 220.995 59.1133 221.715 58.58C222.449 58.0467 222.902 57.3133 223.075 56.38H224.015C223.802 57.5133 223.255 58.4267 222.375 59.12C221.495 59.8133 220.382 60.16 219.035 60.16C218.009 60.16 217.095 59.9333 216.295 59.48C215.509 59.0267 214.889 58.38 214.435 57.54C213.995 56.6867 213.775 55.6933 213.775 54.56Z" fill="#174478"/>
<path d="M231.537 60.16C230.524 60.16 229.611 59.9333 228.797 59.48C227.984 59.0267 227.344 58.38 226.877 57.54C226.424 56.6867 226.197 55.6933 226.197 54.56C226.197 53.44 226.431 52.46 226.897 51.62C227.364 50.7667 228.004 50.12 228.817 49.68C229.644 49.2267 230.564 49 231.577 49C232.591 49 233.504 49.2267 234.317 49.68C235.131 50.12 235.764 50.76 236.217 51.6C236.684 52.44 236.917 53.4267 236.917 54.56C236.917 55.6933 236.684 56.6867 236.217 57.54C235.751 58.38 235.104 59.0267 234.277 59.48C233.464 59.9333 232.551 60.16 231.537 60.16ZM231.537 59.36C232.324 59.36 233.057 59.1867 233.737 58.84C234.431 58.48 234.984 57.94 235.397 57.22C235.811 56.5 236.017 55.6133 236.017 54.56C236.017 53.52 235.811 52.64 235.397 51.92C234.984 51.2 234.437 50.6667 233.757 50.32C233.077 49.96 232.344 49.78 231.557 49.78C230.771 49.78 230.037 49.96 229.357 50.32C228.691 50.6667 228.151 51.2 227.737 51.92C227.324 52.64 227.117 53.52 227.117 54.56C227.117 55.6133 227.317 56.5 227.717 57.22C228.131 57.94 228.671 58.48 229.337 58.84C230.017 59.1867 230.751 59.36 231.537 59.36Z" fill="#174478"/>
<path d="M248.828 49.14V60H247.928V57.64C247.621 58.4667 247.108 59.1 246.388 59.54C245.681 59.9667 244.868 60.18 243.948 60.18C242.654 60.18 241.594 59.7867 240.768 59C239.954 58.2 239.548 57.02 239.548 55.46V49.14H240.428V55.4C240.428 56.6933 240.754 57.6867 241.408 58.38C242.061 59.06 242.948 59.4 244.068 59.4C245.241 59.4 246.174 59.0267 246.868 58.28C247.574 57.5333 247.928 56.4267 247.928 54.96V49.14H248.828Z" fill="#174478"/>
<path d="M257.009 48.92C258.302 48.92 259.355 49.32 260.169 50.12C260.982 50.9067 261.389 52.08 261.389 53.64V60H260.509V53.7C260.509 52.4067 260.182 51.42 259.529 50.74C258.875 50.0467 257.989 49.7 256.869 49.7C255.695 49.7 254.755 50.0733 254.049 50.82C253.355 51.5667 253.009 52.6733 253.009 54.14V60H252.109V49.14H253.009V51.44C253.315 50.6267 253.822 50.0067 254.529 49.58C255.249 49.14 256.075 48.92 257.009 48.92Z" fill="#174478"/>
<path d="M265.91 49.92V57.1C265.91 57.9 266.056 58.4533 266.35 58.76C266.643 59.0533 267.163 59.2 267.91 59.2H269.13V60H267.77C266.823 60 266.123 59.78 265.67 59.34C265.23 58.8867 265.01 58.14 265.01 57.1V49.92H263.37V49.14H265.01V46.38H265.91V49.14H269.13V49.92H265.91Z" fill="#174478"/>
<path d="M277.608 46.72C277.394 46.72 277.214 46.6533 277.068 46.52C276.921 46.3733 276.848 46.18 276.848 45.94C276.848 45.7133 276.921 45.5267 277.068 45.38C277.214 45.2333 277.394 45.16 277.608 45.16C277.821 45.16 278.001 45.2333 278.148 45.38C278.294 45.5267 278.368 45.7133 278.368 45.94C278.368 46.18 278.294 46.3733 278.148 46.52C278.001 46.6533 277.821 46.72 277.608 46.72ZM278.048 49.14V60H277.148V49.14H278.048Z" fill="#174478"/>
<path d="M286.247 48.92C287.54 48.92 288.594 49.32 289.407 50.12C290.22 50.9067 290.627 52.08 290.627 53.64V60H289.747V53.7C289.747 52.4067 289.42 51.42 288.767 50.74C288.114 50.0467 287.227 49.7 286.107 49.7C284.934 49.7 283.994 50.0733 283.287 50.82C282.594 51.5667 282.247 52.6733 282.247 54.14V60H281.347V49.14H282.247V51.44C282.554 50.6267 283.06 50.0067 283.767 49.58C284.487 49.14 285.314 48.92 286.247 48.92Z" fill="#174478"/>
<path d="M297.948 49.94H295.128V60H294.228V49.94H292.588V49.14H294.228V48.38C294.228 47.2467 294.515 46.4067 295.088 45.86C295.661 45.3 296.601 45.02 297.908 45.02V45.82C296.868 45.82 296.141 46.02 295.728 46.42C295.328 46.82 295.128 47.4733 295.128 48.38V49.14H297.948V49.94Z" fill="#174478"/>
<path d="M305.033 60.16C304.02 60.16 303.107 59.9333 302.293 59.48C301.48 59.0267 300.84 58.38 300.373 57.54C299.92 56.6867 299.693 55.6933 299.693 54.56C299.693 53.44 299.927 52.46 300.393 51.62C300.86 50.7667 301.5 50.12 302.313 49.68C303.14 49.2267 304.06 49 305.073 49C306.087 49 307 49.2267 307.813 49.68C308.627 50.12 309.26 50.76 309.713 51.6C310.18 52.44 310.413 53.4267 310.413 54.56C310.413 55.6933 310.18 56.6867 309.713 57.54C309.247 58.38 308.6 59.0267 307.773 59.48C306.96 59.9333 306.047 60.16 305.033 60.16ZM305.033 59.36C305.82 59.36 306.553 59.1867 307.233 58.84C307.927 58.48 308.48 57.94 308.893 57.22C309.307 56.5 309.513 55.6133 309.513 54.56C309.513 53.52 309.307 52.64 308.893 51.92C308.48 51.2 307.933 50.6667 307.253 50.32C306.573 49.96 305.84 49.78 305.053 49.78C304.267 49.78 303.533 49.96 302.853 50.32C302.187 50.6667 301.647 51.2 301.233 51.92C300.82 52.64 300.613 53.52 300.613 54.56C300.613 55.6133 300.813 56.5 301.213 57.22C301.627 57.94 302.167 58.48 302.833 58.84C303.513 59.1867 304.247 59.36 305.033 59.36Z" fill="#174478"/>
<path d="M314.044 51.38C314.311 50.58 314.784 49.9733 315.464 49.56C316.144 49.1333 317.011 48.92 318.064 48.92V49.86H317.764C316.697 49.86 315.811 50.1667 315.104 50.78C314.397 51.38 314.044 52.3667 314.044 53.74V60H313.144V49.14H314.044V51.38Z" fill="#174478"/>
<path d="M332.976 48.92C334.216 48.92 335.229 49.32 336.016 50.12C336.803 50.9067 337.196 52.08 337.196 53.64V60H336.316V53.7C336.316 52.4067 336.003 51.42 335.376 50.74C334.763 50.0467 333.916 49.7 332.836 49.7C331.716 49.7 330.816 50.0867 330.136 50.86C329.456 51.6333 329.116 52.7533 329.116 54.22V60H328.236V53.7C328.236 52.4067 327.923 51.42 327.296 50.74C326.683 50.0467 325.836 49.7 324.756 49.7C323.636 49.7 322.736 50.0867 322.056 50.86C321.376 51.6333 321.036 52.7533 321.036 54.22V60H320.136V49.14H321.036V51.5C321.343 50.6467 321.836 50.0067 322.516 49.58C323.209 49.14 324.003 48.92 324.896 48.92C325.883 48.92 326.729 49.18 327.436 49.7C328.156 50.2067 328.649 50.96 328.916 51.96C329.169 50.96 329.663 50.2067 330.396 49.7C331.129 49.18 331.989 48.92 332.976 48.92Z" fill="#174478"/>
<path d="M339.83 54.56C339.83 53.44 340.05 52.46 340.49 51.62C340.943 50.78 341.563 50.1333 342.35 49.68C343.15 49.2267 344.057 49 345.07 49C346.217 49 347.19 49.28 347.99 49.84C348.79 50.4 349.35 51.1133 349.67 51.98V49.14H350.57V60H349.67V57.14C349.35 58.02 348.783 58.7467 347.97 59.32C347.17 59.88 346.203 60.16 345.07 60.16C344.057 60.16 343.15 59.9333 342.35 59.48C341.563 59.0133 340.943 58.36 340.49 57.52C340.05 56.6667 339.83 55.68 339.83 54.56ZM349.67 54.56C349.67 53.6133 349.47 52.78 349.07 52.06C348.683 51.3267 348.15 50.7667 347.47 50.38C346.79 49.98 346.03 49.78 345.19 49.78C344.31 49.78 343.537 49.9733 342.87 50.36C342.203 50.7333 341.683 51.28 341.31 52C340.937 52.72 340.75 53.5733 340.75 54.56C340.75 55.5467 340.937 56.4 341.31 57.12C341.683 57.84 342.203 58.3933 342.87 58.78C343.55 59.1667 344.323 59.36 345.19 59.36C346.03 59.36 346.79 59.1667 347.47 58.78C348.163 58.38 348.703 57.82 349.09 57.1C349.477 56.3667 349.67 55.52 349.67 54.56Z" fill="#174478"/>
<path d="M355.187 49.92V57.1C355.187 57.9 355.334 58.4533 355.627 58.76C355.92 59.0533 356.44 59.2 357.187 59.2H358.407V60H357.047C356.1 60 355.4 59.78 354.947 59.34C354.507 58.8867 354.287 58.14 354.287 57.1V49.92H352.647V49.14H354.287V46.38H355.187V49.14H358.407V49.92H355.187Z" fill="#174478"/>
<path d="M361.241 46.72C361.027 46.72 360.847 46.6533 360.701 46.52C360.554 46.3733 360.481 46.18 360.481 45.94C360.481 45.7133 360.554 45.5267 360.701 45.38C360.847 45.2333 361.027 45.16 361.241 45.16C361.454 45.16 361.634 45.2333 361.781 45.38C361.927 45.5267 362.001 45.7133 362.001 45.94C362.001 46.18 361.927 46.3733 361.781 46.52C361.634 46.6533 361.454 46.72 361.241 46.72ZM361.681 49.14V60H360.781V49.14H361.681Z" fill="#174478"/>
<path d="M369.76 60.16C368.747 60.16 367.833 59.9333 367.02 59.48C366.207 59.0267 365.567 58.38 365.1 57.54C364.647 56.6867 364.42 55.6933 364.42 54.56C364.42 53.44 364.653 52.46 365.12 51.62C365.587 50.7667 366.227 50.12 367.04 49.68C367.867 49.2267 368.787 49 369.8 49C370.813 49 371.727 49.2267 372.54 49.68C373.353 50.12 373.987 50.76 374.44 51.6C374.907 52.44 375.14 53.4267 375.14 54.56C375.14 55.6933 374.907 56.6867 374.44 57.54C373.973 58.38 373.327 59.0267 372.5 59.48C371.687 59.9333 370.773 60.16 369.76 60.16ZM369.76 59.36C370.547 59.36 371.28 59.1867 371.96 58.84C372.653 58.48 373.207 57.94 373.62 57.22C374.033 56.5 374.24 55.6133 374.24 54.56C374.24 53.52 374.033 52.64 373.62 51.92C373.207 51.2 372.66 50.6667 371.98 50.32C371.3 49.96 370.567 49.78 369.78 49.78C368.993 49.78 368.26 49.96 367.58 50.32C366.913 50.6667 366.373 51.2 365.96 51.92C365.547 52.64 365.34 53.52 365.34 54.56C365.34 55.6133 365.54 56.5 365.94 57.22C366.353 57.94 366.893 58.48 367.56 58.84C368.24 59.1867 368.973 59.36 369.76 59.36Z" fill="#174478"/>
<path d="M382.77 48.92C384.064 48.92 385.117 49.32 385.93 50.12C386.744 50.9067 387.15 52.08 387.15 53.64V60H386.27V53.7C386.27 52.4067 385.944 51.42 385.29 50.74C384.637 50.0467 383.75 49.7 382.63 49.7C381.457 49.7 380.517 50.0733 379.81 50.82C379.117 51.5667 378.77 52.6733 378.77 54.14V60H377.87V49.14H378.77V51.44C379.077 50.6267 379.584 50.0067 380.29 49.58C381.01 49.14 381.837 48.92 382.77 48.92Z" fill="#174478"/>
</svg>
